<?xml version="1.0" encoding="UTF-8" standalone="no"?>
<!-- Created with Inkscape (http://www.inkscape.org/) -->

<svg
   xmlns:dc="http://purl.org/dc/elements/1.1/"
   xmlns:cc="http://creativecommons.org/ns#"
   xmlns:rdf="http://www.w3.org/1999/02/22-rdf-syntax-ns#"
   xmlns:svg="http://www.w3.org/2000/svg"
   xmlns="http://www.w3.org/2000/svg"
   xmlns:sodipodi="http://sodipodi.sourceforge.net/DTD/sodipodi-0.dtd"
   xmlns:inkscape="http://www.inkscape.org/namespaces/inkscape"
   id="svg8872"
   version="1.1"
   inkscape:version="0.48.1 r9760"
   width="220"
   height="220"
   sodipodi:docname="Qr-code-ver-10.png">
  <metadata
     id="metadata8878">
    <rdf:RDF>
      <cc:Work
         rdf:about="">
        <dc:format>image/svg+xml</dc:format>
        <dc:type
           rdf:resource="http://purl.org/dc/dcmitype/StillImage" />
        <dc:title></dc:title>
      </cc:Work>
    </rdf:RDF>
  </metadata>
  <defs
     id="defs8876" />
  <sodipodi:namedview
     pagecolor="#ffffff"
     bordercolor="#666666"
     borderopacity="1"
     objecttolerance="10"
     gridtolerance="10"
     guidetolerance="10"
     inkscape:pageopacity="0"
     inkscape:pageshadow="2"
     inkscape:window-width="1400"
     inkscape:window-height="1002"
     id="namedview8874"
     showgrid="false"
     showguides="true"
     inkscape:guide-bbox="true"
     inkscape:zoom="6.8139381"
     inkscape:cx="102.5435"
     inkscape:cy="155.90862"
     inkscape:window-x="-3"
     inkscape:window-y="-3"
     inkscape:window-maximized="1"
     inkscape:current-layer="svg8872">
    <sodipodi:guide
       orientation="0,1"
       position="46.082016,196.0687"
       id="guide10116" />
    <sodipodi:guide
       orientation="1,0"
       position="24.948862,113.88422"
       id="guide10118" />
  </sodipodi:namedview>
  <g
     id="g9908"
     transform="matrix(0.00893711,0,0,-0.00893711,23.16144,199.34744)"
     style="fill:#000000;stroke:none">
    <path
       id="path9910"
       d="m 205,19618 c -3,-7 -4,-537 -3,-1178 l 3,-1165 1170,0 1170,0 0,1175 0,1175 -1168,3 c -929,2 -1169,0 -1172,-10 z m 2000,-1168 0,-835 -835,0 -835,0 -3,825 c -1,454 0,831 3,838 3,10 176,12 837,10 l 833,-3 0,-835 z"
       inkscape:connector-curvature="0"
       style="fill:#000000" />
    <path
       id="path9912"
       d="m 875,18938 c -3,-7 -4,-231 -3,-498 l 3,-485 500,0 500,0 0,495 0,495 -498,3 c -393,2 -499,0 -502,-10 z"
       inkscape:connector-curvature="0"
       style="fill:#000000" />
    <path
       id="path9914"
       d="m 3225,19618 c -3,-7 -6,-83 -7,-168 l -3,-155 -160,-5 -160,-5 0,-165 0,-165 160,-5 160,-5 3,-497 2,-498 -162,-2 -163,-3 -3,-502 -2,-503 -675,0 -675,0 0,-170 0,-170 503,-2 502,-3 3,-162 2,-163 -167,-2 -168,-3 0,-165 0,-165 168,-3 167,-2 0,-170 0,-170 -332,-2 -333,-3 -3,-162 -2,-163 -170,0 -170,0 -2,163 -3,162 -160,0 -160,0 0,-495 0,-495 160,0 160,0 3,163 2,162 170,0 170,0 0,170 0,170 335,0 335,0 0,-170 0,-170 -167,-2 -168,-3 0,-160 0,-160 168,-3 167,-2 0,-170 0,-170 -167,-2 -168,-3 -3,-167 -2,-168 -163,-2 -162,-3 -3,-162 -2,-163 -170,0 -170,0 -2,163 -3,162 -330,5 -330,5 -5,165 -5,165 -330,0 -330,0 0,-165 0,-165 160,-5 160,-5 5,-160 5,-160 165,-5 165,-5 3,-167 2,-168 -335,0 -335,0 2,-162 3,-163 330,0 330,0 3,163 2,162 170,0 170,0 0,-335 0,-335 -167,-2 -168,-3 0,-165 0,-165 168,-3 167,-2 -2,-333 -3,-332 -165,0 -165,0 -5,165 -5,165 -167,3 -168,2 -2,333 -3,332 -160,0 -160,0 -3,-332 -2,-333 165,0 165,0 2,-332 3,-333 500,-5 500,-5 0,-335 0,-335 -162,-3 -163,-2 -2,167 -3,168 -335,0 -335,0 0,-165 0,-165 338,-3 337,-2 -2,-163 -3,-162 -335,-5 -335,-5 -3,-167 -2,-168 -165,0 -165,0 2,-162 3,-163 162,-3 163,-2 2,-168 3,-167 337,-3 338,-2 2,-168 3,-167 163,-3 162,-2 0,-165 0,-165 -503,2 -502,3 -5,160 -5,160 -160,0 -160,0 0,-495 0,-495 502,-3 503,-2 0,-170 0,-170 -503,-2 -502,-3 -3,-502 -2,-503 332,-2 333,-3 0,-330 0,-330 -167,-3 -168,-2 -2,167 -3,168 -160,0 -160,0 0,-165 0,-165 163,-3 162,-2 -2,-503 -3,-502 -163,-3 -162,-2 2,-163 3,-162 330,-5 330,-5 0,-335 0,-335 -165,0 -165,0 -5,165 -5,165 -160,0 -160,0 -3,-333 -2,-332 840,0 840,0 0,165 0,165 668,-2 667,-3 3,-162 2,-163 -502,-2 -503,-3 0,-165 0,-165 335,-5 335,-5 5,-665 5,-665 162,-3 163,-2 2,-503 3,-502 500,-5 500,-5 5,-165 5,-165 165,0 165,0 3,502 2,503 165,0 165,0 2,-162 3,-163 500,-5 500,-5 0,-165 0,-165 -165,-5 -165,-5 0,-165 0,-165 335,0 335,0 5,165 5,165 162,3 163,2 2,-167 3,-168 165,0 165,0 3,168 2,167 163,-2 162,-3 5,-165 5,-165 165,0 165,0 5,165 5,165 167,3 168,2 2,-167 3,-168 160,0 160,0 3,168 2,167 333,-2 332,-3 5,-165 5,-165 165,0 165,0 3,338 2,337 170,0 170,0 2,-337 3,-338 330,0 330,0 3,167 2,168 163,2 162,3 3,167 2,168 168,2 167,3 0,160 0,160 -165,0 -165,0 -3,-162 -2,-163 -165,0 -165,0 0,165 0,165 -170,0 -170,0 0,-165 0,-165 -165,0 -165,0 2,332 3,333 495,5 495,5 5,160 5,160 165,0 165,0 5,-160 5,-160 167,-3 168,-2 2,-333 3,-332 160,-5 160,-5 0,-165 0,-165 -330,-5 -330,-5 0,-165 0,-165 1845,0 1845,0 5,335 5,335 160,0 160,0 5,-165 5,-165 165,0 165,0 5,165 5,165 332,3 333,2 2,-167 3,-168 332,-3 333,-2 2,-168 3,-167 165,0 165,0 3,168 2,167 163,-2 162,-3 5,-165 5,-165 165,0 165,0 3,338 2,337 333,-2 332,-3 3,-167 2,-168 -162,-2 -163,-3 0,-165 0,-165 160,0 160,0 3,168 2,167 170,0 170,0 2,-167 3,-168 330,0 330,0 0,335 0,335 -165,0 -165,0 -5,-165 -5,-165 -162,-3 -163,-2 0,335 0,335 333,2 332,3 0,330 0,330 -330,5 -330,5 0,335 0,335 330,5 330,5 0,330 0,330 -165,5 -165,5 -3,162 -2,163 167,2 168,3 0,835 0,835 -165,0 -165,0 -5,-160 -5,-160 -163,-3 -162,-2 2,-333 3,-332 160,-5 160,-5 3,-337 2,-338 -165,0 -165,0 -2,168 -3,167 -167,3 -168,2 0,505 0,505 -162,-2 -163,-3 -3,-502 -2,-503 -338,-2 -337,-3 -5,-165 -5,-165 -160,-5 -160,-5 -3,-162 -2,-163 -335,0 -335,0 2,163 3,162 160,5 160,5 0,165 0,165 -330,0 -330,0 0,-330 0,-330 168,-3 167,-2 -2,-168 -3,-167 -165,-5 -165,-5 0,-160 0,-160 165,-5 165,-5 0,-165 0,-165 -670,0 -670,0 -3,503 -2,502 170,0 170,0 0,335 0,335 163,2 162,3 5,165 5,165 335,5 335,5 5,160 5,160 163,3 162,2 0,335 0,335 333,2 332,3 5,165 5,165 167,3 168,2 2,-167 3,-168 330,0 330,0 5,165 5,165 165,5 165,5 3,332 2,333 -170,0 -170,0 -2,-162 -3,-163 -162,-3 -163,-2 -2,332 -3,333 -168,3 -167,2 2,163 3,162 165,5 165,5 0,165 0,165 -165,5 -165,5 -5,165 -5,165 -165,5 -165,5 0,160 0,160 335,0 335,0 5,-160 5,-160 163,-3 162,-2 0,-505 0,-505 170,0 170,0 2,332 3,333 162,3 163,2 2,-667 3,-668 165,0 165,0 0,665 0,665 -167,3 -168,2 -2,333 -3,332 -162,3 -163,2 -2,-162 -3,-163 -167,-3 -168,-2 0,335 0,335 503,2 502,3 0,330 0,330 -167,3 -168,2 -2,168 -3,167 -330,0 -330,0 -3,-167 -2,-168 -165,0 -165,0 2,503 3,502 163,3 162,2 0,-170 0,-170 170,0 170,0 0,170 0,170 -170,0 -170,0 2,163 3,162 330,5 330,5 5,165 5,165 165,5 165,5 0,500 0,500 -167,3 -168,2 0,165 0,165 168,2 167,3 0,335 0,335 -332,3 -333,2 0,165 0,165 163,2 162,3 5,165 5,165 165,5 165,5 0,160 0,160 -330,0 -330,0 -3,-332 -2,-333 -170,0 -170,0 -2,673 -3,672 -500,0 -500,0 -5,-165 -5,-165 -160,0 -160,0 -3,332 -2,333 332,2 333,3 3,167 2,168 168,2 167,3 0,160 0,160 -165,0 -165,0 -3,-162 -2,-163 -335,0 -335,0 0,165 0,165 163,2 162,3 5,335 5,335 165,5 165,5 0,330 0,330 -332,3 -333,2 0,-675 0,-675 -335,0 -335,0 -2,168 -3,167 -167,3 -168,2 -2,168 -3,167 -330,5 -330,5 -3,163 -2,162 670,0 670,0 -2,503 -3,502 -160,0 -160,0 -5,-165 -5,-165 -165,0 -165,0 -3,337 -2,338 167,2 168,3 0,835 0,835 -670,0 -670,0 -3,-167 -2,-168 -165,0 -165,0 -2,168 -3,167 -165,0 -165,0 -3,-167 -2,-168 -170,0 -170,0 -2,168 -3,167 -160,0 -160,0 0,-165 0,-165 163,-3 162,-2 -2,-168 -3,-167 -330,0 -330,0 -5,335 -5,335 -330,0 -330,0 0,-165 0,-165 165,-5 165,-5 0,-165 0,-165 -165,-5 -165,-5 0,-160 0,-160 165,-5 165,-5 3,-167 2,-168 -340,0 -340,0 -2,168 -3,167 -332,3 -333,2 0,165 0,165 333,2 332,3 0,165 0,165 -160,5 -160,5 -5,165 -5,165 -165,0 -165,0 -3,-337 -2,-338 -165,0 -165,0 -2,338 -3,337 -335,0 -335,0 -5,-335 -5,-335 -160,0 -160,0 -5,335 -5,335 -330,0 -330,0 -3,-167 -2,-168 -338,-2 -337,-3 -5,-165 -5,-165 -162,-3 -163,-2 -2,337 -3,338 -165,0 -165,0 -5,-165 -5,-165 -330,-5 -330,-5 -5,-165 -5,-165 -332,-3 -333,-2 -2,337 -3,338 -165,0 -165,0 0,-335 0,-335 167,-3 168,-2 2,-498 3,-497 330,0 330,0 0,160 0,160 -165,5 -165,5 0,165 0,165 503,3 502,2 0,-170 0,-170 170,0 170,0 0,170 0,170 333,-2 332,-3 0,-165 0,-165 -165,-5 -165,-5 -5,-160 -5,-160 -160,-5 -160,-5 -3,-167 -2,-168 -170,0 -170,0 -2,168 -3,167 -160,0 -160,0 -3,-167 -2,-168 -168,-2 -167,-3 -3,-168 -2,-167 -168,2 -167,3 -5,165 -5,165 -160,0 -160,0 -5,-165 -5,-165 -165,0 -165,0 -5,165 -5,165 -162,3 -163,2 0,170 0,170 163,2 162,3 3,332 2,333 -502,2 -503,3 0,160 0,160 165,5 165,5 5,165 5,165 165,5 165,5 0,165 0,165 -335,0 -335,0 -5,-165 -5,-165 -160,0 -160,0 -5,165 -5,165 -165,0 -165,0 -3,-338 -2,-337 -163,2 -162,3 -5,335 -5,335 -165,0 -165,0 -5,-165 -5,-165 -167,-3 -168,-2 -2,167 -3,168 -328,3 c -257,2 -329,0 -332,-10 z m 663,-495 -3,-168 -160,0 -160,0 -3,155 c -1,85 0,160 2,167 4,10 44,13 166,13 l 160,0 -2,-167 z m 6050,-341 2,-502 -162,2 -163,3 -3,503 -2,502 162,-2 163,-3 3,-503 z m 4714,341 3,-168 163,-3 162,-2 0,170 0,170 503,-2 502,-3 0,-165 0,-165 -502,-3 -503,-2 0,-165 0,-165 -332,2 -333,3 -3,333 -2,332 170,0 170,0 2,-167 z m -9412,-673 5,-495 162,-3 163,-2 2,162 3,163 335,0 335,0 3,-162 2,-163 -340,0 -340,0 2,-502 3,-503 165,0 165,0 5,330 5,330 167,3 168,2 2,-332 3,-333 668,-3 667,-2 0,165 0,165 168,2 167,3 3,168 2,167 165,0 165,0 0,-335 0,-335 333,-2 332,-3 0,-330 0,-330 -162,-3 -163,-2 -2,-168 -3,-167 -168,-3 -167,-2 2,-168 3,-167 330,-5 330,-5 3,-837 2,-838 170,0 170,0 2,338 3,337 165,5 165,5 5,160 5,160 163,3 162,2 0,170 0,170 170,0 170,0 -2,-332 -3,-333 -165,-5 -165,-5 -3,-502 -2,-503 170,0 170,0 0,-170 0,-170 333,-2 332,-3 0,-330 0,-330 -165,-5 -165,-5 -5,-165 -5,-165 -160,-5 -160,-5 -3,-162 -2,-163 162,-2 163,-3 5,-165 5,-165 167,-3 168,-2 2,332 3,333 167,3 168,2 2,168 3,167 160,0 160,0 0,-165 0,-165 -162,-3 -163,-2 0,-335 0,-335 165,0 165,0 2,-332 3,-333 330,-5 330,-5 3,-168 2,-167 338,2 337,3 5,165 5,165 160,0 160,0 5,-165 5,-165 167,-3 168,-2 2,167 3,168 160,5 160,5 0,165 0,165 -160,5 -160,5 -3,163 -2,162 -170,0 -170,0 -2,-162 -3,-163 -665,0 -665,0 -3,162 -2,163 332,2 333,3 3,333 2,332 -170,0 -170,0 -2,-162 -3,-163 -163,-3 -162,-2 2,162 3,163 163,3 162,2 0,170 0,170 -162,2 -163,3 -5,165 -5,165 -330,5 -330,5 0,160 0,160 163,3 162,2 -2,503 -3,502 -502,3 -503,2 0,-170 0,-170 338,-2 337,-3 0,-160 0,-160 -335,0 -335,0 -3,162 -2,163 -163,2 -162,3 0,165 0,165 162,3 163,2 2,168 3,167 165,5 165,5 0,160 0,160 -165,5 -165,5 0,165 0,165 165,5 165,5 5,160 5,160 168,3 167,2 -2,168 -3,167 -337,3 -338,2 -2,-167 -3,-168 -495,0 -495,0 -5,335 -5,335 -165,5 -165,5 0,160 0,160 332,3 333,2 2,-332 3,-333 333,-3 332,-2 -2,167 -3,168 -160,5 -160,5 -3,162 -2,163 162,2 163,3 5,165 5,165 165,5 165,5 3,162 2,163 -167,2 -168,3 0,165 0,165 167,3 168,2 2,168 3,167 167,3 168,2 2,163 3,162 163,3 162,2 -2,-162 -3,-163 -162,-3 -163,-2 0,-170 0,-170 163,-2 162,-3 3,-168 2,-167 168,2 167,3 3,503 2,502 165,0 165,0 2,-502 3,-503 165,0 165,0 5,335 5,335 168,3 167,2 0,165 0,165 335,0 335,0 0,170 0,170 163,-2 162,-3 0,-165 0,-165 -163,-3 -162,-2 2,-163 3,-162 332,-3 333,-2 2,162 3,163 165,0 165,0 3,-162 2,-163 163,-2 162,-3 3,-337 2,-338 170,0 170,0 2,168 3,167 160,0 160,0 0,-165 0,-165 -162,-3 -163,-2 0,-165 0,-165 -170,0 -170,0 0,165 0,165 -162,2 -163,3 -3,338 -2,337 -170,0 -170,0 2,-502 3,-503 165,-5 165,-5 5,-165 5,-165 163,-3 162,-2 -2,-163 -3,-162 -160,-5 -160,-5 0,-165 0,-165 160,-5 160,-5 5,-165 5,-165 165,0 165,0 5,165 5,165 333,3 332,2 0,-170 0,-170 170,0 170,0 -2,-162 -3,-163 -167,-3 -168,-2 0,-170 0,-170 335,0 335,0 0,170 0,170 170,0 170,0 0,-170 0,-170 -170,0 -170,0 -2,-162 -3,-163 -160,-5 -160,-5 -3,-167 -2,-168 162,-2 163,-3 3,-332 2,-333 170,0 170,0 2,163 3,162 160,0 160,0 0,-330 0,-330 -332,-3 -333,-2 0,170 0,170 -165,0 -165,0 -2,-167 -3,-168 -167,-3 -168,-2 0,-165 0,-165 168,-2 167,-3 5,-165 5,-165 162,-3 163,-2 2,167 3,168 165,0 165,0 3,-167 2,-168 163,-2 162,-3 0,-500 0,-500 -163,-3 -162,-2 2,-163 3,-162 500,-5 500,-5 0,-165 0,-165 -670,0 -670,0 -3,333 -2,332 170,0 170,0 0,170 0,170 -170,0 -170,0 0,165 0,165 -502,2 -503,3 0,165 0,165 165,5 165,5 3,167 2,168 -167,2 -168,3 0,160 0,160 168,3 167,2 0,170 0,170 -167,2 -168,3 0,160 0,160 165,0 165,0 3,-162 2,-163 170,0 170,0 0,335 0,335 -167,2 -168,3 -3,333 -2,332 -335,0 -335,0 0,170 0,170 -332,-2 -333,-3 0,-165 0,-165 163,-3 162,-2 0,-165 0,-165 168,-2 167,-3 0,-165 0,-165 -167,-3 -168,-2 0,-335 0,-335 -165,0 -165,0 0,-170 0,-170 335,0 335,0 -2,-332 -3,-333 -165,-5 -165,-5 -3,-332 -2,-333 -165,0 -165,0 0,-170 0,-170 335,0 335,0 0,170 0,170 163,-2 162,-3 3,-332 2,-333 338,-2 337,-3 0,-335 0,-335 -168,-3 -167,-2 2,-163 3,-162 165,-5 165,-5 0,-165 0,-165 -502,-3 -503,-2 0,170 0,170 -170,0 -170,0 2,163 3,162 165,0 165,0 3,-163 2,-162 163,2 162,3 5,160 5,160 168,3 167,2 -2,168 -3,167 -165,5 -165,5 -3,168 -2,167 -163,-2 -162,-3 -5,-165 -5,-165 -165,0 -165,0 -5,165 -5,165 -160,5 -160,5 -3,163 -2,162 -170,0 -170,0 0,-505 0,-505 168,-2 167,-3 0,-330 0,-330 -165,0 -165,0 -3,333 -2,332 -335,0 -335,0 0,-335 0,-335 -170,0 -170,0 -2,-162 -3,-163 -163,-3 -162,-2 2,-168 3,-167 160,-5 160,-5 0,-165 0,-165 -160,-5 -160,-5 0,-160 0,-160 162,-3 163,-2 2,-333 3,-332 168,-3 167,-2 0,335 0,335 163,-2 162,-3 0,-330 0,-330 -162,-3 -163,-2 -2,-168 -3,-167 -165,-5 -165,-5 0,-165 0,-165 165,-5 165,-5 3,-668 2,-667 163,2 162,3 5,165 5,165 165,0 165,0 5,-335 5,-335 330,0 330,0 5,335 5,335 165,5 165,5 3,162 2,163 -502,2 -503,3 -3,167 -2,168 -168,2 -167,3 0,330 0,330 165,5 165,5 3,667 2,668 -332,2 -333,3 0,165 0,165 332,3 333,2 2,168 3,167 500,0 500,0 3,-167 2,-168 163,-2 162,-3 0,-165 0,-165 -162,-3 -163,-2 0,-165 0,-165 163,-2 162,-3 3,-168 2,-167 168,2 167,3 5,330 5,330 165,0 165,0 5,-330 5,-330 163,-3 162,-2 0,170 0,170 170,0 170,0 -2,163 -3,162 -165,5 -165,5 0,165 0,165 330,0 330,0 5,-165 5,-165 165,0 165,0 5,165 5,165 167,3 168,2 2,-167 3,-168 163,-3 162,-2 0,170 0,170 335,0 335,0 -2,-167 -3,-168 -332,-3 -333,-2 0,-165 0,-165 -670,0 -670,0 0,-170 0,-170 -170,0 -170,0 2,-162 3,-163 165,-5 165,-5 3,-337 2,-338 163,-2 162,-3 5,-160 5,-160 168,-3 167,-2 -2,-168 -3,-167 -332,-3 -333,-2 -2,-333 -3,-332 -165,-5 -165,-5 -3,-167 -2,-168 -163,-2 -162,-3 -5,-160 -5,-160 -167,-3 -168,-2 -2,-168 -3,-167 -165,0 -165,0 0,165 0,165 168,3 167,2 0,670 0,670 -170,0 -170,0 -2,-502 -3,-503 -160,-5 -160,-5 -3,-162 -2,-163 -170,0 -170,0 0,-335 0,-335 168,-2 167,-3 3,-167 2,-168 -170,0 -170,0 -2,-167 -3,-168 -160,0 -160,0 0,165 0,165 163,3 162,2 0,170 0,170 -162,2 -163,3 -5,330 -5,330 -165,0 -165,0 -5,-165 -5,-165 -502,-3 -503,-2 0,170 0,170 -162,-2 -163,-3 -3,-503 -2,-502 332,2 333,3 5,165 5,165 330,0 330,0 0,-165 0,-165 -165,-5 -165,-5 -3,-167 -2,-168 167,-2 168,-3 5,-160 5,-160 165,-5 165,-5 0,-165 0,-165 -335,-5 -335,-5 0,-160 0,-160 165,-5 165,-5 0,-165 0,-165 -500,-5 -500,-5 -3,-167 -2,-168 167,-2 168,-3 0,-665 0,-665 -165,0 -165,0 -3,332 -2,333 -163,2 -162,3 -3,168 -2,167 -168,-2 -167,-3 -5,-165 -5,-165 -332,-3 -333,-2 0,170 0,170 163,2 162,3 3,333 2,332 -162,-2 -163,-3 -5,-165 -5,-165 -165,-5 -165,-5 -3,-162 -2,-163 -165,0 -165,0 -2,332 -3,333 -335,5 -335,5 0,165 0,165 335,5 335,5 5,160 5,160 163,3 162,2 0,170 0,170 -162,2 -163,3 -3,163 -2,162 -168,-2 -167,-3 -5,-330 -5,-330 -165,0 -165,0 -3,503 -2,502 -163,-2 -162,-3 -5,-165 -5,-165 -165,-5 -165,-5 -3,-163 -2,-162 -333,2 -332,3 -3,163 -2,162 -168,-2 -167,-3 -5,-160 -5,-160 -162,-3 -163,-2 0,-170 0,-170 -170,0 -170,0 0,170 0,170 -332,2 -333,3 -5,330 -5,330 -165,0 -165,0 -5,-165 -5,-165 -330,0 -330,0 -5,165 -5,165 -330,0 -330,0 0,-165 0,-165 165,-5 165,-5 0,-160 0,-160 -335,-5 -335,-5 -3,-167 -2,-168 167,-2 168,-3 0,-160 0,-160 -167,-3 -168,-2 -2,-168 -3,-167 -332,-3 -333,-2 0,-335 0,-335 503,-2 502,-3 0,-165 0,-165 -502,-3 -503,-2 0,170 0,170 -165,0 -165,0 0,-170 0,-170 -170,0 -170,0 -2,-162 -3,-163 -330,0 -330,0 -3,163 -2,162 335,0 335,0 2,168 3,167 168,3 167,2 -2,163 -3,162 -165,5 -165,5 -5,165 -5,165 -165,0 -165,0 -5,-330 -5,-330 -332,-3 -333,-2 0,840 0,840 170,0 170,0 0,-170 0,-170 163,2 162,3 5,165 5,165 168,3 167,2 -2,668 -3,667 -502,3 -503,2 -2,-162 -3,-163 -332,-3 -333,-2 -2,-168 -3,-167 -332,-3 -333,-2 0,-170 0,-170 -332,2 -333,3 -3,672 -2,673 -168,2 -167,3 0,160 0,160 167,3 168,2 2,168 3,167 160,5 160,5 5,165 5,165 165,0 165,0 5,-165 5,-165 665,-5 665,-5 3,-333 2,-332 503,2 502,3 5,160 5,160 165,5 165,5 5,335 5,335 160,5 160,5 3,333 2,332 -162,-2 -163,-3 -5,-165 -5,-165 -165,-5 -165,-5 -5,-330 -5,-330 -167,-3 -168,-2 -2,-168 -3,-167 -160,0 -160,0 0,165 0,165 162,3 163,2 2,503 3,502 165,5 165,5 5,160 5,160 333,3 332,2 -2,338 -3,337 -330,5 -330,5 -3,332 -2,333 -168,2 -167,3 0,160 0,160 167,3 168,2 2,338 3,337 168,3 167,2 -2,163 -3,162 -165,5 -165,5 -3,168 -2,167 -168,-2 -167,-3 -5,-330 -5,-330 -162,-3 -163,-2 0,-505 0,-505 -332,-2 -333,-3 0,-165 0,-165 163,-3 162,-2 -2,-163 -3,-162 -332,-3 -333,-2 0,-170 0,-170 168,-2 167,-3 5,-165 5,-165 333,-3 332,-2 0,505 0,505 163,-2 162,-3 0,-500 0,-500 -162,-3 -163,-2 0,-335 0,-335 -335,0 -335,0 -2,-162 -3,-163 -335,0 -335,0 -3,163 -2,162 -335,0 -335,0 0,170 0,170 -333,2 -332,3 0,160 0,160 165,5 165,5 3,167 2,168 163,2 162,3 3,168 2,167 -165,0 -165,0 2,163 3,162 163,3 162,2 0,170 0,170 170,0 170,0 -2,163 -3,162 -167,3 -168,2 0,170 0,170 -165,0 -165,0 0,170 0,170 -340,0 -340,0 0,165 0,165 338,-2 337,-3 3,-162 2,-163 163,-2 162,-3 3,-167 2,-168 503,-2 502,-3 3,-168 2,-167 168,2 167,3 5,165 5,165 160,5 160,5 5,165 5,165 168,3 167,2 0,165 0,165 -170,0 -170,0 0,170 0,170 170,0 170,0 -2,163 -3,162 -165,5 -165,5 -5,165 -5,165 -160,5 -160,5 -3,333 -2,332 -338,-2 -337,-3 0,-160 0,-160 165,-5 165,-5 0,-165 0,-165 -330,0 -330,0 -3,502 -2,503 332,2 333,3 0,160 0,160 -667,3 -668,2 0,170 0,170 332,2 333,3 0,165 0,165 -165,5 -165,5 -3,163 -2,162 -165,0 -165,0 2,168 3,167 163,3 162,2 0,-170 0,-170 170,0 170,0 0,170 0,170 165,0 165,0 0,165 0,165 168,2 167,3 3,168 2,167 170,0 170,0 -2,168 -3,167 -167,3 -168,2 0,165 0,165 168,2 167,3 0,165 0,165 -167,3 -168,2 0,165 0,165 335,0 335,0 0,340 0,340 -165,0 -165,0 -2,-167 -3,-168 -167,-3 -168,-2 0,170 0,170 170,0 170,0 0,335 0,335 165,0 165,0 0,505 0,505 168,-2 167,-3 3,-502 2,-503 -170,0 -170,0 0,-335 0,-335 168,2 167,3 3,162 2,163 333,2 332,3 3,332 2,333 -167,2 -168,3 0,335 0,335 168,3 167,2 -2,163 -3,162 -332,3 -333,2 0,170 0,170 503,-2 502,-3 5,-165 5,-165 163,-3 162,-2 0,335 0,335 168,-2 167,-3 5,-495 z m 3360,335 0,-165 -170,0 -170,0 0,158 c 0,87 3,162 7,165 3,4 80,7 170,7 l 163,0 0,-165 z m 2688,3 -3,-163 -167,-3 -168,-2 -2,-168 -3,-167 -165,0 -165,0 0,165 0,165 168,3 167,2 0,159 c 0,87 3,161 7,164 3,4 80,7 170,7 l 163,0 -2,-162 z m 4700,-506 2,-332 -332,2 -333,3 -3,333 -2,332 332,-2 333,-3 3,-333 z m -5710,-840 2,-502 -502,2 -503,3 -3,490 c -1,270 0,496 3,503 3,10 109,12 502,10 l 498,-3 3,-503 z m -1353,-2 0,-165 -160,0 -160,0 -3,168 -2,167 162,-2 163,-3 0,-165 z m 9085,-3865 5,-330 162,-3 163,-2 2,-163 3,-162 167,-3 168,-2 2,-168 3,-167 160,-5 160,-5 3,-167 2,-168 -335,0 -335,0 0,-165 0,-165 335,0 335,0 -2,-167 -3,-168 -162,-3 -163,-2 -2,-163 -3,-162 -165,0 -165,0 -3,332 -2,333 -163,2 -162,3 -3,162 -2,163 -168,2 -167,3 0,165 0,165 168,3 167,2 -2,168 -3,167 -165,5 -165,5 -3,485 c -1,267 0,491 3,498 3,10 43,12 167,10 l 163,-3 5,-330 z m -15125,-3525 0,-495 -500,0 -500,0 -3,485 c -1,267 0,491 3,498 3,10 109,12 502,10 l 498,-3 0,-495 z m 14780,0 0,-495 -500,0 -500,0 -3,485 c -1,267 0,491 3,498 3,10 109,12 502,10 l 498,-3 0,-495 z m -1340,-670 0,-165 -165,0 -165,0 -3,155 c -1,85 0,160 3,167 3,11 40,13 167,11 l 163,-3 0,-165 z m 1683,-3357 -3,-168 -167,-3 -168,-2 0,163 c 0,90 3,167 7,170 3,4 80,7 170,7 l 163,0 -2,-167 z M 3885,4340 l 0,-165 -160,0 -160,0 -3,155 c -1,85 0,160 3,167 3,11 39,13 162,11 l 158,-3 0,-165 z m 14455,-340 0,-170 170,0 170,0 0,-335 0,-335 -170,0 -170,0 -2,-162 -3,-163 -160,0 -160,0 0,160 0,160 163,3 162,2 0,335 0,335 -165,0 -165,0 -2,-162 -3,-163 -165,0 -165,0 0,160 0,160 168,3 167,2 0,170 0,170 165,0 165,0 0,-170 z M 6582,2998 l 3,-163 502,-3 503,-2 2,162 3,163 165,0 165,0 0,-160 0,-160 -168,-3 -167,-2 2,-168 3,-167 165,-5 165,-5 3,-168 2,-167 333,2 332,3 0,165 0,165 -165,5 -165,5 0,165 0,165 330,0 330,0 3,-502 2,-503 168,-2 167,-3 3,-332 2,-333 -502,-2 -503,-3 -3,-167 -2,-168 -165,0 -165,0 0,335 0,335 -167,-2 -168,-3 -5,-160 -5,-160 -330,-5 -330,-5 -3,-167 -2,-168 -170,0 -170,0 -2,168 -3,167 -160,5 -160,5 -3,990 c -1,545 0,996 3,1003 3,9 46,12 164,12 l 161,0 2,-162 z m 3696,-340 -3,-503 -500,0 -500,0 -3,490 c -1,270 0,496 3,503 3,9 114,12 505,12 l 500,0 -2,-502 z m 7387,-3 0,-500 -500,0 -500,0 -3,503 -2,502 502,-2 503,-3 0,-500 z m 673,-502 2,-333 170,0 170,0 0,-170 0,-170 -332,2 -333,3 -3,490 c -1,270 0,496 3,503 3,10 42,12 162,10 l 158,-3 3,-332 z m -3360,-341 2,-332 -502,2 -503,3 0,165 0,165 335,5 335,5 3,150 c 1,83 4,156 7,163 3,10 42,12 162,10 l 158,-3 3,-333 z m 1010,1 2,-333 170,0 170,0 2,168 3,167 333,3 332,2 0,-170 0,-170 163,2 162,3 5,165 5,165 165,0 165,0 3,-332 2,-333 -332,-2 -333,-3 -3,-167 -2,-168 -170,0 -170,0 0,335 0,335 -165,0 -165,0 -2,-162 -3,-163 -167,-3 -168,-2 0,165 0,165 -335,0 -335,0 0,328 c 0,181 3,332 7,335 4,4 153,6 332,5 l 326,-3 3,-332 z m -5708,-833 0,-170 -167,2 -168,3 -3,168 -2,167 170,0 170,0 0,-170 z m 2345,0 0,-165 -330,0 -330,0 -3,155 c -1,85 0,160 2,167 4,11 71,13 333,11 l 328,-3 0,-165 z m 1680,0 0,-165 -165,0 -165,0 -3,155 c -1,85 0,160 3,167 3,11 40,13 167,11 l 163,-3 0,-165 z"
       inkscape:connector-curvature="0"
       style="fill:#000000" />
    <path
       id="path9916"
       d="m 4230,17610 0,-340 168,2 167,3 5,165 5,165 162,3 163,2 2,-167 3,-168 165,0 165,0 0,165 0,165 -167,3 -168,2 -2,168 -3,167 -332,3 -333,2 0,-340 z"
       inkscape:connector-curvature="0"
       style="fill:#000000" />
    <path
       id="path9918"
       d="m 12972,17613 3,-338 160,0 160,0 0,335 0,335 -163,3 -162,2 2,-337 z"
       inkscape:connector-curvature="0"
       style="fill:#000000" />
    <path
       id="path9920"
       d="m 10950,17440 0,-170 170,0 170,0 0,-335 0,-335 -167,-2 -168,-3 0,-160 0,-160 165,0 165,0 3,163 2,162 165,0 165,0 0,335 0,335 -165,0 -165,0 0,170 0,170 -170,0 -170,0 0,-170 z"
       inkscape:connector-curvature="0"
       style="fill:#000000" />
    <path
       id="path9922"
       d="m 13647,17604 c -4,-4 -7,-155 -7,-336 l 0,-328 -840,0 -840,0 0,-170 0,-170 163,-2 162,-3 3,-332 2,-333 -332,-2 -333,-3 -5,-165 -5,-165 -163,-3 -162,-2 2,-163 3,-162 163,-3 162,-2 0,-170 0,-170 170,0 170,0 0,170 0,170 335,0 335,0 0,-170 0,-170 -167,-2 -168,-3 0,-160 0,-160 168,-3 167,-2 0,-340 0,-340 -167,-2 -168,-3 0,-330 0,-330 503,-3 502,-2 -2,332 -3,333 -163,3 -162,2 2,168 3,167 160,5 160,5 3,168 2,167 170,0 170,0 2,-167 3,-168 163,-3 162,-2 0,-505 0,-505 -165,0 -165,0 0,-165 0,-165 -332,-2 -333,-3 -3,-167 -2,-168 -170,0 -170,0 -2,168 -3,167 -165,0 -165,0 -3,-167 -2,-168 170,0 170,0 0,-170 0,-170 170,0 170,0 2,-332 3,-333 163,-3 162,-2 0,170 0,170 170,0 170,0 0,505 0,505 163,2 162,3 3,163 2,162 170,0 170,0 2,-162 3,-163 165,0 165,0 3,163 2,162 -170,0 -170,0 2,168 3,167 167,3 168,2 2,333 3,332 163,3 162,2 0,170 0,170 -335,0 -335,0 -2,163 -3,162 -165,0 -165,0 -3,-162 -2,-163 -165,0 -165,0 0,335 0,335 163,2 162,3 5,330 5,330 165,5 165,5 0,165 0,165 -330,0 -330,0 -5,-335 -5,-335 -165,0 -165,0 -5,165 -5,165 -333,3 -332,2 2,168 3,167 330,5 330,5 3,162 2,163 333,2 332,3 0,500 0,500 -156,3 c -85,1 -158,-1 -162,-4 z m -1017,-1844 0,-170 168,-2 167,-3 0,-160 0,-160 -167,-3 -168,-2 0,165 0,165 -167,2 -168,3 -3,168 -2,167 170,0 170,0 0,-170 z m 670,-1005 0,-165 -335,0 -335,0 0,165 0,165 335,0 335,0 0,-165 z m 1008,-332 -3,-168 -167,-3 -168,-2 0,170 0,170 170,0 170,0 -2,-167 z m -1340,-675 -3,-163 -165,0 -165,0 -3,163 -2,162 170,0 170,0 -2,-162 z m 327,-1348 0,-165 -162,-3 -163,-2 0,170 0,170 163,-2 162,-3 0,-165 z"
       inkscape:connector-curvature="0"
       style="fill:#000000" />
    <path
       id="path9924"
       d="m 4575,16928 c -3,-7 -6,-157 -7,-333 l -3,-320 -165,-5 -165,-5 0,-165 0,-165 330,0 330,0 5,165 5,165 165,0 165,0 3,-502 2,-503 -332,-2 -333,-3 -3,-168 -2,-167 -168,2 -167,3 -5,330 -5,330 -165,0 -165,0 -5,-330 -5,-330 -162,-3 -163,-2 0,-335 0,-335 -335,0 -335,0 2,-167 3,-168 160,-5 160,-5 3,-162 2,-163 -162,-2 -163,-3 0,-165 0,-165 333,-3 332,-2 0,-670 0,-670 -332,-2 -333,-3 -3,-167 -2,-168 500,0 500,0 0,-165 0,-165 -162,-2 -163,-3 0,-165 0,-165 162,-3 163,-2 2,-168 3,-167 165,-5 165,-5 3,-163 2,-162 168,2 167,3 5,500 5,500 495,0 495,0 0,-165 0,-165 -160,-5 -160,-5 -3,-332 -2,-333 162,-2 163,-3 0,-165 0,-165 -332,-3 -333,-2 0,-165 0,-165 -165,0 -165,0 2,-167 3,-168 160,0 160,0 3,168 2,167 168,-2 167,-3 5,-165 5,-165 160,-5 160,-5 3,-167 2,-168 -670,0 -670,0 0,-165 0,-165 505,0 505,0 0,-170 0,-170 333,-2 332,-3 5,-330 5,-330 165,0 165,0 5,165 5,165 162,3 163,2 2,-167 3,-168 165,-5 165,-5 3,-332 2,-333 -170,0 -170,0 -2,163 -3,162 -160,0 -160,0 -3,-163 -2,-162 -168,2 -167,3 -5,160 -5,160 -502,3 -503,2 0,-165 0,-165 333,-2 332,-3 5,-165 5,-165 165,-5 165,-5 3,-162 2,-163 -332,-2 -333,-3 0,-165 0,-165 160,-5 160,-5 3,-167 2,-168 -332,-2 -333,-3 -3,-162 -2,-163 -163,-2 -162,-3 0,-165 0,-165 163,-3 162,-2 0,170 0,170 335,0 335,0 0,-335 0,-335 -162,-2 -163,-3 0,-165 0,-165 160,0 160,0 3,167 2,168 338,2 337,3 0,160 0,160 -165,5 -165,5 -3,167 -2,168 167,2 168,3 5,160 5,160 333,3 332,2 0,-165 0,-165 163,2 162,3 0,160 0,160 -162,3 -163,2 0,170 0,170 335,0 335,0 0,-505 0,-505 -167,-2 -168,-3 0,-160 0,-160 165,0 165,0 3,163 2,162 335,0 335,0 0,170 0,170 170,0 170,0 0,-335 0,-335 -167,-2 -168,-3 -5,-165 -5,-165 -160,-5 -160,-5 0,-165 0,-165 160,-5 160,-5 3,-162 2,-163 170,0 170,0 0,505 0,505 163,-2 162,-3 5,-165 5,-165 165,-5 165,-5 3,-168 2,-167 168,2 167,3 5,165 5,165 160,5 160,5 3,503 2,502 170,0 170,0 0,335 0,335 165,0 165,0 2,-167 3,-168 335,-5 335,-5 3,-162 2,-163 -337,-2 -338,-3 -3,-502 -2,-503 340,0 340,0 0,-170 0,-170 163,2 162,3 3,168 2,167 333,-2 332,-3 5,-165 5,-165 335,0 335,0 3,167 2,168 -167,2 -168,3 -5,165 -5,165 -330,5 -330,5 -3,162 -2,163 162,2 163,3 0,330 0,330 -162,3 -163,2 0,505 0,505 -332,-2 -333,-3 -5,-330 -5,-330 -338,-3 -337,-2 2,332 3,333 165,5 165,5 3,333 2,332 168,-2 167,-3 5,-160 5,-160 163,-3 162,-2 -2,332 -3,333 -330,0 -330,0 -3,-167 -2,-168 -168,-2 -167,-3 -5,-160 -5,-160 -162,-3 -163,-2 -2,162 -3,163 -330,5 -330,5 0,335 0,335 160,5 160,5 3,497 2,498 168,2 167,3 5,165 5,165 160,5 160,5 5,500 5,500 165,5 165,5 3,502 2,503 168,2 167,3 3,163 2,162 -170,0 -170,0 0,-165 0,-165 -167,-2 -168,-3 -5,-165 -5,-165 -160,0 -160,0 -3,333 -2,332 -170,0 -170,0 0,170 0,170 -162,-2 -163,-3 -5,-165 -5,-165 -165,-5 -165,-5 -3,-162 -2,-163 -333,-2 -332,-3 0,-165 0,-165 160,-5 160,-5 0,-165 0,-165 -330,-5 -330,-5 -3,-497 -2,-498 -163,-2 -162,-3 -5,-165 -5,-165 -335,-5 -335,-5 0,-165 0,-165 335,-5 335,-5 5,-160 5,-160 163,-3 162,-2 0,-170 0,-170 335,0 335,0 -2,-332 -3,-333 -162,-3 -163,-2 -2,167 -3,168 -165,0 -165,0 -3,-168 -2,-167 -333,2 -332,3 -5,165 -5,165 -165,5 -165,5 -5,330 -5,330 -162,3 -163,2 -2,163 -3,162 -168,3 -167,2 2,168 3,167 165,5 165,5 3,333 2,332 165,0 165,0 2,-162 3,-163 165,0 165,0 3,162 2,163 168,2 167,3 0,165 0,165 -167,3 -168,2 -2,163 -3,162 -835,5 -835,5 0,335 0,335 165,5 165,5 5,160 5,160 332,3 333,2 2,-162 3,-163 162,-3 163,-2 2,-168 3,-167 500,0 500,0 0,165 0,165 -160,5 -160,5 -5,160 -5,160 -168,3 -167,2 2,168 3,167 333,3 332,2 -2,333 -3,332 -162,3 -163,2 -2,168 -3,167 -165,5 -165,5 0,330 0,330 165,5 165,5 0,160 0,160 -165,5 -165,5 -5,165 -5,165 -165,5 -165,5 -5,165 -5,165 -160,0 -160,0 -5,-165 -5,-165 -165,0 -165,0 -5,165 -5,165 -160,0 -160,0 0,-335 0,-335 160,-5 160,-5 3,-162 2,-163 -162,-2 -163,-3 -3,-167 -2,-168 -170,0 -170,0 -2,333 -3,332 -165,5 -165,5 0,165 0,165 165,5 165,5 0,165 0,165 -332,3 -333,2 0,335 0,335 165,0 165,0 2,-167 3,-168 165,0 165,0 3,168 2,167 168,-2 167,-3 5,-165 5,-165 495,0 495,0 5,330 5,330 165,5 165,5 0,165 0,165 -165,5 -165,5 0,165 0,165 337,3 338,2 2,-167 3,-168 163,-3 162,-2 0,170 0,170 170,0 170,0 0,165 0,165 -170,0 -170,0 0,170 0,170 -335,0 -335,0 -2,-167 -3,-168 -332,-3 -333,-2 -2,-333 -3,-332 -165,0 -165,0 -3,333 -2,332 -670,0 -670,0 0,170 0,170 -330,0 c -255,0 -332,-3 -335,-12 z m 3685,-493 0,-165 -165,0 -165,0 0,158 c 0,87 3,162 7,165 3,4 78,7 165,7 l 158,0 0,-165 z m -2015,-505 0,-335 -165,-5 -165,-5 -3,-162 -2,-163 -170,0 -170,0 2,333 3,332 165,5 165,5 3,155 c 1,85 4,161 7,168 3,10 43,12 167,10 l 163,-3 0,-335 z m -1343,-1172 3,-163 168,-3 167,-2 -2,-338 -3,-337 -332,-3 -333,-2 0,-165 0,-165 165,0 165,0 0,-335 0,-335 333,2 332,3 3,163 2,162 -165,0 -165,0 0,170 0,170 163,-2 162,-3 3,-167 2,-168 170,0 170,0 2,-332 3,-333 165,0 165,0 3,333 2,332 165,0 165,0 0,170 0,170 333,-2 332,-3 0,-165 0,-165 -333,-3 -332,-2 2,-503 3,-502 167,-3 168,-2 2,167 3,168 503,3 502,2 -2,-167 -3,-168 -502,-3 -503,-2 0,-165 0,-165 163,-2 162,-3 3,-167 2,-168 170,0 170,0 -2,-162 -3,-163 -167,-3 -168,-2 0,165 0,165 -165,0 -165,0 0,170 0,170 -502,-2 -503,-3 -5,-165 -5,-165 -332,-3 -333,-2 0,170 0,170 -170,0 -170,0 0,-170 0,-170 -505,0 -505,0 2,673 3,672 167,3 168,2 2,163 3,162 165,5 165,5 3,168 2,167 -337,-2 -338,-3 -5,-165 -5,-165 -162,-3 -163,-2 0,505 0,505 163,2 162,3 5,165 5,165 335,5 335,5 3,163 2,162 165,0 165,0 2,-162 z m -677,-3698 0,-165 -167,-3 -168,-2 0,170 0,170 168,-2 167,-3 0,-165 z m 5380,0 0,-165 -165,0 -165,0 -3,168 -2,167 167,-2 168,-3 0,-165 z m 670,-1010 0,-495 -500,0 -500,0 -3,485 c -1,267 0,491 3,498 3,10 109,12 502,10 l 498,-3 0,-495 z m -3355,0 0,-170 -170,0 -170,0 0,170 0,170 170,0 170,0 0,-170 z m 670,0 0,-170 -170,0 -170,0 0,163 c 0,90 3,167 7,170 3,4 80,7 170,7 l 163,0 0,-170 z m 1335,-335 0,-500 -330,0 -330,0 -3,167 -2,168 167,2 168,3 3,333 2,332 163,-2 162,-3 0,-500 z m -2675,-505 5,-335 163,-3 162,-2 0,-165 0,-165 -502,2 -503,3 -3,162 -2,163 167,2 168,3 3,325 c 1,179 4,331 7,338 3,10 43,12 167,10 l 163,-3 5,-335 z m 3688,-173 2,-167 -162,2 -163,3 -3,155 c -1,85 0,160 3,167 3,11 39,13 162,11 l 158,-3 3,-168 z m -333,-667 0,-165 -337,-3 -338,-2 0,163 c 0,90 3,167 7,170 4,4 155,6 337,5 l 331,-3 0,-165 z m -2687,-332 -3,-163 -167,-3 -168,-2 0,165 0,165 170,0 170,0 -2,-162 z m 1682,-843 0,-335 165,0 165,0 2,163 3,162 165,0 165,0 3,-162 2,-163 168,-2 167,-3 0,-165 0,-165 -167,-3 -168,-2 0,-165 0,-165 333,2 332,3 3,163 2,162 170,0 170,0 0,-335 0,-335 -332,-2 -333,-3 0,-165 0,-165 160,-5 160,-5 3,-162 2,-163 -670,0 -670,0 -2,163 -3,162 -165,5 -165,5 -3,338 -2,337 -165,0 -165,0 -2,-167 -3,-168 -167,-3 -168,-2 0,170 0,170 -332,-2 -333,-3 -3,-168 -2,-167 -168,2 -167,3 -5,165 -5,165 -162,3 -163,2 -2,-167 -3,-168 -165,0 -165,0 -3,168 -2,167 170,0 170,0 0,335 0,335 165,0 165,0 0,-170 0,-170 333,2 332,3 5,165 5,165 167,3 168,2 2,163 3,162 165,0 165,0 0,-160 0,-160 -167,-3 -168,-2 0,-335 0,-335 170,0 170,0 2,163 3,162 163,3 162,2 0,505 0,505 170,0 170,0 0,-335 z m -2692,-1852 2,-163 -170,0 -170,0 0,165 0,165 168,-2 167,-3 3,-162 z m 6052,-168 0,-335 -335,0 -335,0 0,-165 0,-165 163,-2 162,-3 3,-167 2,-168 -165,0 -165,0 0,170 0,170 -167,2 -168,3 0,160 0,160 168,3 167,2 0,170 0,170 165,0 165,0 0,158 c 0,87 3,162 7,165 3,4 80,7 170,7 l 163,0 0,-335 z"
       inkscape:connector-curvature="0"
       style="fill:#000000" />
    <path
       id="path9926"
       d="m 4235,14237 c -3,-7 -4,-82 -3,-167 l 3,-155 168,-3 167,-2 -2,167 -3,168 -163,3 c -127,2 -164,0 -167,-11 z"
       inkscape:connector-curvature="0"
       style="fill:#000000" />
    <path
       id="path9928"
       d="m 4232,12408 3,-503 333,-3 332,-2 -2,162 -3,163 -160,5 -160,5 0,165 0,165 160,5 160,5 3,168 2,167 -335,0 -335,0 2,-502 z"
       inkscape:connector-curvature="0"
       style="fill:#000000" />
    <path
       id="path9930"
       d="m 5247,12224 c -4,-4 -7,-79 -7,-166 l 0,-158 163,2 162,3 0,160 0,160 -156,3 c -85,1 -158,-1 -162,-4 z"
       inkscape:connector-curvature="0"
       style="fill:#000000" />
    <path
       id="path9932"
       d="m 9614,10207 c -2,-7 -3,-82 -2,-167 l 3,-155 163,-3 162,-2 0,170 0,170 -160,0 c -122,0 -162,-3 -166,-13 z"
       inkscape:connector-curvature="0"
       style="fill:#000000" />
    <path
       id="path9934"
       d="m 8932,6693 3,-168 168,-3 167,-2 0,170 0,170 -170,0 -170,0 2,-167 z"
       inkscape:connector-curvature="0"
       style="fill:#000000" />
    <path
       id="path9936"
       d="m 8260,6355 0,-165 170,0 170,0 2,-167 3,-168 330,0 330,0 3,168 2,167 -335,0 -335,0 0,165 0,165 -170,0 -170,0 0,-165 z"
       inkscape:connector-curvature="0"
       style="fill:#000000" />
    <path
       id="path9938"
       d="m 3220,15425 0,-165 170,0 170,0 -2,163 -3,162 -167,3 -168,2 0,-165 z"
       inkscape:connector-curvature="0"
       style="fill:#000000" />
    <path
       id="path9940"
       d="m 15654,15577 c -2,-7 -3,-80 -2,-162 l 3,-150 168,-3 167,-2 0,165 0,165 -165,0 c -126,0 -167,-3 -171,-13 z"
       inkscape:connector-curvature="0"
       style="fill:#000000" />
    <path
       id="path9942"
       d="m 7595,15247 c -3,-7 -4,-156 -3,-332 l 3,-320 165,0 165,0 5,160 5,160 333,3 332,2 0,170 0,170 -500,0 c -393,0 -502,-3 -505,-13 z"
       inkscape:connector-curvature="0"
       style="fill:#000000" />
    <path
       id="path9944"
       d="m 8265,14577 c -3,-7 -4,-82 -3,-167 l 3,-155 165,0 165,0 0,165 0,165 -163,3 c -127,2 -164,0 -167,-11 z"
       inkscape:connector-curvature="0"
       style="fill:#000000" />
    <path
       id="path9946"
       d="m 8607,13903 c -4,-3 -7,-78 -7,-165 l 0,-158 165,0 165,0 2,-167 3,-168 165,-5 165,-5 3,-502 2,-503 -170,0 -170,0 -2,338 -3,337 -160,0 -160,0 0,-335 0,-335 162,-3 163,-2 2,-163 3,-162 165,0 165,0 3,162 2,163 333,2 332,3 3,337 2,338 168,2 167,3 3,163 2,162 -170,0 -170,0 0,170 0,170 -162,2 -163,3 -5,160 -5,160 -167,3 -168,2 -2,-162 -3,-163 -167,-3 -168,-2 0,165 0,165 -158,0 c -87,0 -162,-3 -165,-7 z m 1333,-828 0,-165 -162,2 -163,3 -3,150 c -1,82 0,155 2,162 4,10 44,13 166,13 l 160,0 0,-165 z"
       inkscape:connector-curvature="0"
       style="fill:#000000" />
    <path
       id="path9948"
       d="m 2212,13413 3,-168 165,0 165,0 0,165 0,165 -168,3 -167,2 2,-167 z"
       inkscape:connector-curvature="0"
       style="fill:#000000" />
    <path
       id="path9950"
       d="m 2215,12897 c -3,-7 -4,-82 -3,-167 l 3,-155 165,0 165,0 0,165 0,165 -163,3 c -127,2 -164,0 -167,-11 z"
       inkscape:connector-curvature="0"
       style="fill:#000000" />
    <path
       id="path9952"
       d="m 2895,12557 c -3,-7 -4,-82 -3,-167 l 3,-155 160,0 160,0 0,165 0,165 -158,3 c -123,2 -159,0 -162,-11 z"
       inkscape:connector-curvature="0"
       style="fill:#000000" />
    <path
       id="path9954"
       d="m 16660,12400 0,-170 168,2 167,3 3,168 2,167 -170,0 -170,0 0,-170 z"
       inkscape:connector-curvature="0"
       style="fill:#000000" />
    <path
       id="path9956"
       d="m 13975,12218 c -3,-7 -4,-157 -3,-333 l 3,-320 167,-3 168,-2 2,167 3,168 168,3 167,2 -2,163 -3,162 -333,3 c -262,2 -334,0 -337,-10 z"
       inkscape:connector-curvature="0"
       style="fill:#000000" />
    <path
       id="path9958"
       d="m 11295,10538 c -3,-7 -4,-157 -3,-333 l 3,-320 162,-3 163,-2 2,-163 3,-162 165,0 165,0 3,163 2,162 -170,0 -170,0 -2,333 -3,332 -158,3 c -121,2 -159,0 -162,-10 z"
       inkscape:connector-curvature="0"
       style="fill:#000000" />
    <path
       id="path9960"
       d="m 11967,10543 c -4,-3 -7,-78 -7,-165 l 0,-158 165,0 165,0 2,-332 3,-333 338,-3 337,-2 -2,332 -3,333 -337,3 -338,2 0,165 0,165 -158,0 c -87,0 -162,-3 -165,-7 z"
       inkscape:connector-curvature="0"
       style="fill:#000000" />
    <path
       id="path9962"
       d="m 10957,9204 c -4,-4 -7,-81 -7,-170 l 0,-164 -167,-2 -168,-3 0,-160 0,-160 168,-3 167,-2 -2,-168 -3,-167 -333,-3 -332,-2 2,-333 3,-332 160,0 160,0 5,165 5,165 335,5 335,5 5,160 5,160 162,3 163,2 2,-162 3,-163 165,-5 165,-5 3,-502 2,-503 165,0 165,0 2,-332 3,-333 165,-5 165,-5 5,-165 5,-165 165,0 165,0 5,165 5,165 160,5 160,5 3,333 2,332 -162,-2 -163,-3 -5,-165 -5,-165 -165,0 -165,0 -5,165 -5,165 -168,3 -167,2 2,163 3,162 335,5 335,5 0,500 0,500 -167,3 -168,2 -2,333 -3,332 -165,5 -165,5 -5,165 -5,165 -330,0 -330,0 -5,-165 -5,-165 -162,-3 -163,-2 -2,167 -3,168 -161,3 c -88,1 -163,-1 -167,-4 z m 331,-496 -3,-163 -167,-3 -168,-2 0,165 0,165 170,0 170,0 -2,-162 z m 1340,-840 -3,-333 -165,0 -165,0 -3,320 c -1,176 0,325 3,332 3,10 46,13 170,13 l 165,0 -2,-332 z"
       inkscape:connector-curvature="0"
       style="fill:#000000" />
    <path
       id="path9964"
       d="m 14310,9040 0,-170 170,0 170,0 2,-332 3,-333 163,-3 162,-2 0,335 0,335 170,0 170,0 0,170 0,170 -167,-2 -168,-3 -3,-167 -2,-168 -165,0 -165,0 -2,168 -3,167 -167,3 -168,2 0,-170 z"
       inkscape:connector-curvature="0"
       style="fill:#000000" />
    <path
       id="path9966"
       d="m 2214,8857 c -2,-7 -3,-80 -2,-162 l 3,-150 165,0 165,0 3,163 2,162 -165,0 c -126,0 -167,-3 -171,-13 z"
       inkscape:connector-curvature="0"
       style="fill:#000000" />
    <path
       id="path9968"
       d="m 1540,8035 0,-165 168,2 167,3 3,163 2,162 -170,0 -170,0 0,-165 z"
       inkscape:connector-curvature="0"
       style="fill:#000000" />
    <path
       id="path9970"
       d="m 2215,8187 c -3,-7 -4,-80 -3,-162 l 3,-150 168,-3 167,-2 -2,162 -3,163 -163,3 c -127,2 -164,0 -167,-11 z"
       inkscape:connector-curvature="0"
       style="fill:#000000" />
    <path
       id="path9972"
       d="m 15318,8038 -3,-163 -330,-5 -330,-5 0,-165 0,-165 160,-5 160,-5 5,-165 5,-165 165,0 165,0 5,165 5,165 160,0 160,0 5,-165 5,-165 503,-3 502,-2 0,-335 0,-335 170,0 170,0 0,335 0,335 -170,0 -170,0 -2,168 -3,167 -330,5 -330,5 -5,165 -5,165 -165,5 -165,5 -3,163 -2,162 -165,0 -165,0 -2,-162 z"
       inkscape:connector-curvature="0"
       style="fill:#000000" />
    <path
       id="path9974"
       d="m 5245,7857 c -3,-7 -4,-82 -3,-167 l 3,-155 160,0 160,0 0,165 0,165 -158,3 c -123,2 -159,0 -162,-11 z"
       inkscape:connector-curvature="0"
       style="fill:#000000" />
    <path
       id="path9976"
       d="m 2214,7517 c -2,-7 -3,-82 -2,-167 l 3,-155 165,0 165,0 3,168 2,167 -165,0 c -126,0 -167,-3 -171,-13 z"
       inkscape:connector-curvature="0"
       style="fill:#000000" />
    <path
       id="path9978"
       d="m 1547,7184 c -4,-4 -7,-79 -7,-166 l 0,-158 170,0 170,0 -2,163 -3,162 -161,3 c -88,1 -163,-1 -167,-4 z"
       inkscape:connector-curvature="0"
       style="fill:#000000" />
    <path
       id="path9980"
       d="m 14317,7184 c -4,-4 -7,-79 -7,-166 l 0,-158 168,2 167,3 0,160 0,160 -161,3 c -88,1 -163,-1 -167,-4 z"
       inkscape:connector-curvature="0"
       style="fill:#000000" />
    <path
       id="path9982"
       d="m 2217,6853 c -4,-3 -7,-80 -7,-170 l 0,-163 340,0 340,0 -2,168 -3,167 -331,3 c -182,1 -333,-1 -337,-5 z"
       inkscape:connector-curvature="0"
       style="fill:#000000" />
    <path
       id="path9984"
       d="m 15320,6690 0,-170 165,0 165,0 -2,168 -3,167 -162,3 -163,2 0,-170 z"
       inkscape:connector-curvature="0"
       style="fill:#000000" />
    <path
       id="path9986"
       d="m 15997,6854 c -4,-4 -7,-81 -7,-171 l 0,-163 168,2 167,3 0,165 0,165 -161,3 c -88,1 -163,-1 -167,-4 z"
       inkscape:connector-curvature="0"
       style="fill:#000000" />
    <path
       id="path9988"
       d="m 13304,5837 c -2,-7 -3,-82 -2,-167 l 3,-155 165,0 165,0 3,168 2,167 -165,0 c -126,0 -167,-3 -171,-13 z"
       inkscape:connector-curvature="0"
       style="fill:#000000" />
    <path
       id="path9990"
       d="m 1210,5345 0,-165 335,0 335,0 -2,163 -3,162 -332,3 -333,2 0,-165 z"
       inkscape:connector-curvature="0"
       style="fill:#000000" />
    <path
       id="path9992"
       d="m 2215,5497 c -3,-7 -4,-80 -3,-162 l 3,-150 165,0 165,0 0,160 0,160 -163,3 c -127,2 -164,0 -167,-11 z"
       inkscape:connector-curvature="0"
       style="fill:#000000" />
    <path
       id="path9994"
       d="m 1542,4508 3,-333 168,-3 167,-2 0,335 0,335 -170,0 -170,0 2,-332 z"
       inkscape:connector-curvature="0"
       style="fill:#000000" />
    <path
       id="path9996"
       d="m 2215,4827 c -3,-7 -4,-80 -3,-162 l 3,-150 168,-3 167,-2 -2,162 -3,163 -163,3 c -127,2 -164,0 -167,-11 z"
       inkscape:connector-curvature="0"
       style="fill:#000000" />
    <path
       id="path9998"
       d="m 6582,4678 3,-163 165,0 165,0 3,163 2,162 -170,0 -170,0 2,-162 z"
       inkscape:connector-curvature="0"
       style="fill:#000000" />
    <path
       id="path10000"
       d="m 4575,4497 c -3,-7 -4,-82 -3,-167 l 3,-155 160,0 160,0 0,165 0,165 -158,3 c -123,2 -159,0 -162,-11 z"
       inkscape:connector-curvature="0"
       style="fill:#000000" />
    <path
       id="path10002"
       d="m 4577,3823 c -4,-3 -7,-78 -7,-165 l 0,-158 -170,0 -170,0 2,-332 3,-333 167,-3 168,-2 2,-168 3,-167 163,-3 162,-2 0,170 0,170 335,0 335,0 0,165 0,165 -165,0 -165,0 -2,333 -3,332 -326,3 c -179,1 -328,-1 -332,-5 z m 323,-658 0,-335 -165,0 -165,0 0,335 0,335 165,0 165,0 0,-335 z"
       inkscape:connector-curvature="0"
       style="fill:#000000" />
    <path
       id="path10004"
       d="m 13307,3823 c -4,-3 -7,-77 -7,-164 l 0,-159 -162,-2 -163,-3 -5,-165 -5,-165 -167,-3 -168,-2 -2,167 -3,168 -165,0 -165,0 0,-165 0,-165 168,-3 167,-2 -2,-163 -3,-162 -165,-5 -165,-5 -3,-168 -2,-167 337,2 338,3 5,165 5,165 160,5 160,5 3,332 2,333 333,2 332,3 3,163 2,162 -328,0 c -181,0 -332,-3 -335,-7 z"
       inkscape:connector-curvature="0"
       style="fill:#000000" />
    <path
       id="path10006"
       d="m 12977,2143 c -4,-3 -7,-78 -7,-165 l 0,-158 165,0 165,0 0,165 0,165 -158,0 c -87,0 -162,-3 -165,-7 z"
       inkscape:connector-curvature="0"
       style="fill:#000000" />
    <path
       id="path10008"
       d="m 9615,17597 c -3,-7 -4,-82 -3,-167 l 3,-155 160,0 160,0 0,165 0,165 -158,3 c -123,2 -159,0 -162,-11 z"
       inkscape:connector-curvature="0"
       style="fill:#000000" />
    <path
       id="path10010"
       d="m 18010,12400 0,-170 165,0 165,0 -2,168 -3,167 -162,3 -163,2 0,-170 z"
       inkscape:connector-curvature="0"
       style="fill:#000000" />
    <path
       id="path10012"
       d="m 2215,10207 c -3,-7 -4,-82 -3,-167 l 3,-155 165,0 165,0 0,165 0,165 -163,3 c -127,2 -164,0 -167,-11 z"
       inkscape:connector-curvature="0"
       style="fill:#000000" />
    <path
       id="path10014"
       d="m 17000,10050 0,-170 163,2 162,3 0,165 0,165 -162,3 -163,2 0,-170 z"
       inkscape:connector-curvature="0"
       style="fill:#000000" />
    <path
       id="path10016"
       d="m 6584,2477 c -2,-7 -3,-82 -2,-167 l 3,-155 165,-5 165,-5 3,-162 2,-163 -170,0 -170,0 0,-170 0,-170 333,2 332,3 5,165 5,165 338,3 337,2 0,-170 0,-170 165,0 165,0 0,170 0,170 -165,0 -165,0 0,165 0,165 -337,2 -338,3 -5,165 -5,165 -328,3 c -262,2 -329,0 -333,-11 z"
       inkscape:connector-curvature="0"
       style="fill:#000000" />
    <path
       id="path10018"
       d="m 8600,1650 0,-170 163,2 162,3 3,168 2,167 -165,0 -165,0 0,-170 z"
       inkscape:connector-curvature="0"
       style="fill:#000000" />
    <path
       id="path10020"
       d="m 9615,2817 c -3,-7 -4,-82 -3,-167 l 3,-155 160,0 160,0 0,165 0,165 -158,3 c -123,2 -159,0 -162,-11 z"
       inkscape:connector-curvature="0"
       style="fill:#000000" />
    <path
       id="path10022"
       d="m 17005,2817 c -3,-7 -4,-82 -3,-167 l 3,-155 160,0 160,0 0,165 0,165 -158,3 c -123,2 -159,0 -162,-11 z"
       inkscape:connector-curvature="0"
       style="fill:#000000" />
    <path
       id="path10024"
       d="m 17005,19618 c -3,-7 -4,-537 -3,-1178 l 3,-1165 1170,0 1170,0 0,1175 0,1175 -1168,3 c -929,2 -1169,0 -1172,-10 z m 2000,-1168 0,-835 -835,0 -835,0 -3,825 c -1,454 0,831 3,838 3,10 176,12 837,10 l 833,-3 0,-835 z"
       inkscape:connector-curvature="0"
       style="fill:#000000" />
    <path
       id="path10026"
       d="m 17675,18938 c -3,-7 -4,-231 -3,-498 l 3,-485 500,0 500,0 0,495 0,495 -498,3 c -393,2 -499,0 -502,-10 z"
       inkscape:connector-curvature="0"
       style="fill:#000000" />
    <path
       id="path10028"
       d="m 18680,16770 0,-170 -332,-2 -333,-3 0,-330 0,-330 160,0 160,0 5,165 5,165 165,5 165,5 3,163 2,162 165,0 165,0 2,-162 3,-163 165,0 165,0 0,160 0,160 -167,3 -168,2 -2,168 -3,167 -162,3 -163,2 0,-170 z"
       inkscape:connector-curvature="0"
       style="fill:#000000" />
    <path
       id="path10030"
       d="m 202,16438 3,-163 330,-5 330,-5 5,-165 5,-165 500,0 500,0 0,165 0,165 -330,5 -330,5 -5,160 -5,160 -503,3 -502,2 2,-162 z"
       inkscape:connector-curvature="0"
       style="fill:#000000" />
    <path
       id="path10032"
       d="m 205,15917 c -3,-7 -4,-82 -3,-167 l 3,-155 163,-3 162,-2 -2,-333 -3,-332 -163,-3 -162,-2 2,-163 3,-162 330,0 330,0 0,495 0,495 -167,3 -168,2 -2,168 -3,167 -158,3 c -123,2 -159,0 -162,-11 z"
       inkscape:connector-curvature="0"
       style="fill:#000000" />
    <path
       id="path10034"
       d="m 19015,15918 c -3,-7 -6,-83 -7,-168 l -3,-155 -160,-5 -160,-5 -3,-162 -2,-163 -170,0 -170,0 0,-170 0,-170 170,0 170,0 2,-332 3,-333 160,0 160,0 5,165 5,165 165,5 165,5 0,160 0,160 -332,3 -333,2 0,170 0,170 333,2 332,3 0,330 0,330 -163,3 c -124,2 -164,0 -167,-10 z"
       inkscape:connector-curvature="0"
       style="fill:#000000" />
    <path
       id="path10036"
       d="m 17002,4848 3,-333 160,0 160,0 5,160 5,160 165,5 165,5 0,165 0,165 -333,3 -332,2 2,-332 z"
       inkscape:connector-curvature="0"
       style="fill:#000000" />
    <path
       id="path10038"
       d="m 15322,2998 3,-163 160,0 160,0 0,160 0,160 -163,3 -162,2 2,-162 z"
       inkscape:connector-curvature="0"
       style="fill:#000000" />
    <path
       id="path10040"
       d="m 205,2818 c -3,-7 -4,-537 -3,-1178 l 3,-1165 1170,0 1170,0 0,1175 0,1175 -1168,3 c -929,2 -1169,0 -1172,-10 z m 2000,-1168 0,-835 -835,0 -835,0 -3,825 c -1,454 0,831 3,838 3,10 176,12 837,10 l 833,-3 0,-835 z"
       inkscape:connector-curvature="0"
       style="fill:#000000" />
    <path
       id="path10042"
       d="m 875,2138 c -3,-7 -4,-231 -3,-498 l 3,-485 500,0 500,0 0,495 0,495 -498,3 c -393,2 -499,0 -502,-10 z"
       inkscape:connector-curvature="0"
       style="fill:#000000" />
  </g>
</svg>
